<svg width="55" height="54" viewBox="0 0 55 54" fill="none" xmlns="http://www.w3.org/2000/svg">
<path fill-rule="evenodd" clip-rule="evenodd" d="M27.4999 50.625C31.123 50.625 37.3182 45.9 37.3182 27C37.3182 8.1 31.123 3.375 27.4999 3.375C23.8768 3.375 17.6816 8.4184 17.6816 27C17.6816 45.5816 23.8768 50.625 27.4999 50.625Z" stroke="#2F98D0" stroke-width="2" stroke-linecap="round" stroke-linejoin="round"/>
<path fill-rule="evenodd" clip-rule="evenodd" d="M6.24318 39.3752C8.05476 42.5391 15.4038 45.4739 32.4094 35.5739C49.4149 25.6739 50.5688 17.7891 48.7572 14.6252C46.9456 11.4614 39.3102 8.69332 22.5912 18.4266C5.87199 28.1598 4.43163 36.2114 6.24318 39.3752Z" stroke="#2F98D0" stroke-width="2" stroke-linecap="round" stroke-linejoin="round"/>
<path fill-rule="evenodd" clip-rule="evenodd" d="M6.24289 14.6252C4.43135 17.7891 5.58521 25.6739 22.5909 35.5739C39.5965 45.4739 46.9453 42.5391 48.7569 39.3752C50.5685 36.2114 49.1282 28.1598 32.409 18.4266C15.6899 8.69332 8.05449 11.4614 6.24289 14.6252Z" stroke="#2F98D0" stroke-width="2" stroke-linecap="round" stroke-linejoin="round"/>
</svg>
