<svg width="54" height="54" viewBox="0 0 54 54" fill="none" xmlns="http://www.w3.org/2000/svg">
<path d="M40.5 24.75L45.7785 19.9102C46.7595 19.0102 47.25 18.5602 47.25 18M47.25 18C47.25 17.4398 46.7595 16.9898 45.7785 16.0898L40.5 11.25M47.25 18C6.75 18 6.75 47.25 6.75 47.25" stroke="#2F98D0" stroke-width="2" stroke-linecap="round" stroke-linejoin="round"/>
<path d="M12.375 18C15.4816 18 18 15.4816 18 12.375C18 9.2684 15.4816 6.75 12.375 6.75C9.2684 6.75 6.75 9.2684 6.75 12.375C6.75 15.4816 9.2684 18 12.375 18Z" stroke="#2F98D0" stroke-width="2" stroke-linecap="round" stroke-linejoin="round"/>
<path d="M29.25 47.25L40.5 36M40.5 47.25L29.25 36" stroke="#2F98D0" stroke-width="2" stroke-linecap="round" stroke-linejoin="round"/>
</svg>
