<svg width="44" height="48" viewBox="0 0 44 48" fill="none" xmlns="http://www.w3.org/2000/svg">
<path d="M22 46.5C20.1595 46.5 18.4 45.7462 14.8832 44.2365C6.1285 40.479 1.75 38.6025 1.75 35.4412V14.4308M22 46.5C23.8405 46.5 25.6 45.7462 29.1168 44.2365C37.8715 40.479 42.25 38.6025 42.25 35.4412V14.4308M22 46.5V24.3825M1.75 14.4308C1.75 15.7898 3.5545 16.6492 7.16125 18.3637L13.7312 21.4913C17.7902 23.4195 19.8175 24.3825 22 24.3825M1.75 14.4308C1.75 13.0718 3.5545 12.2168 7.16125 10.5M42.25 14.4308C42.25 15.7875 40.4455 16.647 36.8387 18.3637L30.2688 21.4913C26.2075 23.4173 24.1825 24.3825 22 24.3825M42.25 14.4308C42.25 13.0718 40.4455 12.2145 36.8387 10.4978M9.247 26.9497L13.7335 29.0827M22 1.5V6M31 3.75L27.625 8.25M13 3.75L16.375 8.25" stroke="#2F98D0" stroke-width="2" stroke-linecap="round" stroke-linejoin="round"/>
</svg>
