<svg width="54" height="54" viewBox="0 0 54 54" fill="none" xmlns="http://www.w3.org/2000/svg">
<path d="M42.1875 33.7501C42.1875 43.0704 36.3203 48.9376 27 48.9376C17.6797 48.9376 11.8125 43.0704 11.8125 33.7501C11.8125 23.7485 22.7 10.2464 26.0392 6.34089C26.158 6.20213 26.3054 6.09073 26.4714 6.01436C26.6373 5.93798 26.8179 5.89844 27.0005 5.89844C27.1832 5.89844 27.3637 5.93798 27.5297 6.01436C27.6956 6.09073 27.8431 6.20213 27.9619 6.34089C31.3 10.2464 42.1875 23.7485 42.1875 33.7501Z" stroke="#2F98D0" stroke-width="2" stroke-miterlimit="10"/>
<path d="M36.2813 34.5938C36.2813 36.6077 35.4812 38.5392 34.0571 39.9633C32.633 41.3874 30.7015 42.1875 28.6875 42.1875" stroke="#2F98D0" stroke-linecap="round" stroke-linejoin="round"/>
</svg>
