<svg width="40" height="49" viewBox="0 0 40 49" fill="none" xmlns="http://www.w3.org/2000/svg">
<path d="M25 1V11.4444C25 12.137 25.2751 12.8011 25.7648 13.2908C26.2545 13.7805 26.9186 14.0556 27.6111 14.0556H38.0556" stroke="#2F98D0" stroke-width="2" stroke-linecap="round" stroke-linejoin="round"/>
<path d="M11.9444 37.5556V24.5M19.7778 37.5556V34.9444M27.6111 37.5556V29.7222M32.8333 48H6.72222C5.3372 48 4.00891 47.4498 3.02955 46.4704C2.0502 45.4911 1.5 44.1628 1.5 42.7778V6.22222C1.5 4.8372 2.0502 3.50891 3.02955 2.52955C4.00891 1.5502 5.3372 1 6.72222 1H25L38.0556 14.0556V42.7778C38.0556 44.1628 37.5054 45.4911 36.526 46.4704C35.5466 47.4498 34.2184 48 32.8333 48Z" stroke="#2F98D0" stroke-width="2" stroke-linecap="round" stroke-linejoin="round"/>
</svg>
