<svg width="45" height="49" viewBox="0 0 45 49" fill="none" xmlns="http://www.w3.org/2000/svg">
<path d="M38.5997 20.9748V19.7998C38.5997 10.9381 38.5997 6.506 35.8455 3.75418C33.0913 1.00235 28.6616 1 19.7998 1C10.9381 1 6.506 1 3.75418 3.75418C1.00235 6.50835 1 10.9381 1 19.7998V33.8997C1 38.2801 1 40.4703 1.71439 42.1951C2.18679 43.3357 2.87923 44.3721 3.75219 45.245C4.62514 46.118 5.66151 46.8104 6.8021 47.2828C8.52934 47.9996 10.7195 47.9996 15.0999 47.9996M10.3999 12.7499H29.1998M10.3999 22.1498H19.7998" stroke="#2F98D0" stroke-width="2" stroke-linecap="round" stroke-linejoin="round"/>
<path d="M29.8654 40.9593C29.7244 38.8726 29.4776 36.6401 28.453 34.1162C27.5765 31.9636 27.8209 26.8994 32.7253 26.8994C37.6297 26.8994 37.8154 31.9636 36.9412 34.1138C35.9166 36.6401 35.7239 38.8726 35.5876 40.9593M43.3002 47.9999H22.1504V45.0718C22.1504 44.0237 22.7755 43.1002 23.6849 42.8135L28.9841 41.1309C29.3633 41.0103 29.7502 40.9499 30.145 40.9499H35.3056C35.7004 40.9499 36.0873 41.0103 36.4665 41.1309L41.7657 42.8135C42.6751 43.1002 43.3002 44.0237 43.3002 45.0718V47.9999Z" stroke="#2F98D0" stroke-width="2" stroke-linecap="round" stroke-linejoin="round"/>
</svg>
